<?xml version="1.0" encoding="UTF-8" standalone="no"?>
<!-- Created with Inkscape (http://www.inkscape.org/) -->

<svg
   version="1.1"
   id="svg6640"
   width="256"
   height="256"
   viewBox="0 0 256 256"
   xmlns="http://www.w3.org/2000/svg"
   xmlnsSvg="http://www.w3.org/2000/svg">
  <defs
     id="defs6644" />
  <g
     id="layer3"
     transform="translate(-330.52539,-4.6152344)">
    <path
       id="path16727"
       style="fill:#424242;fill-opacity:1;stroke:none;stroke-width:1.27096;paint-order:markers stroke fill"
       d="m 390.33594,37.037109 a 59.811455,59.811455 0 0 0 -59.81055,59.8125 59.811455,59.811455 0 0 0 38.53125,55.736331 c 2.48492,-4.89301 5.38977,-9.57795 8.63867,-13.98242 10.31494,-13.93513 23.45548,-25.4944 37.25196,-35.875 10.44281,-7.982219 21.81829,-14.549236 33.24023,-21.015629 A 59.811455,59.811455 0 0 0 390.33594,37.037109 Z m 50.90234,91.074221 c -2.5623,2.07471 -5.08933,4.19181 -7.53906,6.40039 -4.94388,4.44359 -9.6335,9.23698 -14.01172,14.28516 a 59.811455,59.811455 0 0 0 9.08203,-6.19727 c 2.22999,-2.26883 4.51955,-4.47494 6.82813,-6.66211 a 59.811455,59.811455 0 0 0 5.64062,-7.82617 z" />
    <path
       id="path16963"
       style="fill:#8cdff6;fill-opacity:1;stroke:none;stroke-width:0.504614;paint-order:markers stroke fill"
       d="m 518.5918,103.85547 c -0.0241,1.47977 -0.0123,2.9597 -0.0625,4.43945 -5.43383,3.64061 -10.86574,7.28407 -16.29883,10.92578 4.00821,-0.72066 8.01719,-1.44144 12.02539,-2.16211 1.25091,-0.45537 2.62595,0.006 3.55273,0.90821 -1.42062,17.28224 -4.70059,34.44832 -10.29297,50.8789 -7.32121,2.05089 -14.64329,4.09873 -21.96484,6.14844 5.32396,1.66002 10.64869,3.32045 15.97266,4.98047 0.44231,0.22488 1.3405,0.2418 1.49804,0.5957 -5.73093,13.2922 -13.0448,25.947 -22.18359,37.19531 -6.66223,-1.51727 -13.32561,-3.02957 -19.98828,-4.54492 3.54369,4.58068 7.08681,9.16179 10.63086,13.74219 -5.33824,4.59332 -10.72921,9.13867 -16.43164,13.27734 a 78.760994,78.760994 0 0 0 52.71484,20.375 78.760994,78.760994 0 0 0 78.76172,-78.76171 78.760994,78.760994 0 0 0 -67.93359,-77.99805 z" />
    <path
       id="path17089"
       style="fill:#896eff;fill-opacity:1;stroke:none;stroke-width:0.547911;paint-order:markers stroke fill"
       d="m 507.66211,4.6152344 a 37.6036,37.6036 0 0 0 -37.60352,37.6035156 37.6036,37.6036 0 0 0 7.21485,21.994141 c 4.24149,-2.96735 8.31304,-6.163638 12.05664,-9.78711 6.60955,-6.277697 11.88178,-14.20792 14.0293,-23.142578 0.60629,-3.096972 1.54482,-6.114212 2.375,-9.15625 0.29622,-1.065755 0.59244,-2.131511 0.88867,-3.197265 1.02166,3.145573 2.04402,6.290205 3.0664,9.435546 3.97151,16.42581 6.80006,33.172475 8.12891,50.029297 A 37.6036,37.6036 0 0 0 545.26562,42.21875 37.6036,37.6036 0 0 0 507.66211,4.6152344 Z" />
  </g>
  <a
     id="a7413"
     style="display:inline"
     transform="translate(-330.52539,-4.6152344)">
    <path
       id="path9638"
       style="display:inline;fill:#5fd35f;stroke:none;stroke-width:0.86947px;stroke-linecap:butt;stroke-linejoin:miter;stroke-opacity:1"
       d="m 506.84594,29.307788 c -6.60986,36.25596 -52.66812,48.291339 -87.54132,73.911702 -34.87321,25.62036 -61.39179,55.9044 -55.00584,96.61301 6.38595,40.7086 26.74129,36.64169 26.74129,36.64169 3.0846,0.53344 -23.68386,-60.31786 59.97132,-119.56735 15.6642,-11.0943 39.21783,-35.678814 39.21783,-35.678814 0,0 -4.75332,11.837267 -21.51767,28.264554 -39.09011,38.30415 -86.94569,63.25028 -58.88958,140.10347 17.01545,3.58492 29.22038,1.35934 57.53832,-23.05682 l -13.99862,-18.09355 26.29297,5.97421 c 7.21092,-9.06938 13.79258,-19.79234 19.29305,-32.10584 l -23.97324,-7.4754 30.18859,-8.44846 c 4.61684,-13.84933 7.92182,-29.31925 9.4385,-46.3434 l -25.94144,4.6632 26.9094,-18.04489 c 0.70495,-23.12976 -1.95749,-49.208998 -8.72356,-77.357312 z" />
  </a>
</svg>
